<svg id="visual" viewBox="0 0 960 540" width="960" height="540" xmlns="http://www.w3.org/2000/svg" xmlns:xlink="http://www.w3.org/1999/xlink" version="1.1"><rect x="0" y="0" width="960" height="540" fill="#000000"></rect><defs><linearGradient id="grad1_0" x1="43.8%" y1="0%" x2="100%" y2="100%"><stop offset="14.444444444444446%" stop-color="#000000" stop-opacity="1"></stop><stop offset="85.55555555555554%" stop-color="#000000" stop-opacity="1"></stop></linearGradient></defs><defs><linearGradient id="grad2_0" x1="0%" y1="0%" x2="56.3%" y2="100%"><stop offset="14.444444444444446%" stop-color="#000000" stop-opacity="1"></stop><stop offset="85.55555555555554%" stop-color="#000000" stop-opacity="1"></stop></linearGradient></defs><g transform="translate(960, 0)"><path d="M0 270C-51.2 265.2 -102.4 260.5 -135 233.8C-167.6 207.2 -181.5 158.6 -200.9 116C-220.3 73.4 -245.2 36.7 -270 0L0 0Z" fill="#FBAE3C"></path></g><g transform="translate(0, 540)"><path d="M0 -270C49.1 -264 98.3 -258.1 135 -233.8C171.7 -209.6 196.1 -167 216.5 -125C236.9 -83 253.5 -41.5 270 0L0 0Z" fill="#FBAE3C"></path></g></svg>